<svg xmlns="http://www.w3.org/2000/svg" width="24" height="24"><path d="M15.09 6.977a1.94 1.94 0 0 1 1.933 1.933v1.555h1.938V8.91a3.88 3.88 0 0 0-3.871-3.87h-1.555v1.937Zm0 0" style="stroke:none;fill-rule:nonzero;fill:#fbc02d;fill-opacity:1"/><path d="M6.977 8.91A1.94 1.94 0 0 1 8.91 6.977h1.555V5.039H8.91A3.88 3.88 0 0 0 5.04 8.91v1.555h1.937Zm0 0" style="stroke:none;fill-rule:nonzero;fill:#e53935;fill-opacity:1"/><path d="M8.91 17.023a1.94 1.94 0 0 1-1.933-1.933v-1.555H5.039v1.555a3.88 3.88 0 0 0 3.871 3.87h1.555v-1.937Zm0 0" style="stroke:none;fill-rule:nonzero;fill:#1a73e8;fill-opacity:1"/><path d="M14.703 12a2.704 2.704 0 0 0-5.406 0 2.704 2.704 0 0 0 5.406 0m0 0" style="stroke:none;fill-rule:nonzero;fill:#1e88e5;fill-opacity:1"/><path d="M18.191 16.64c0-.859-.695-1.55-1.55-1.55a1.55 1.55 0 1 0 1.55 1.55m0 0" style="stroke:none;fill-rule:nonzero;fill:#4caf50;fill-opacity:1"/></svg>