<svg xmlns="http://www.w3.org/2000/svg" width="24" height="24"><path d="M12 14.254a2.27 2.27 0 0 0 2.273-2.274V6.668A2.27 2.27 0 0 0 12 4.398a2.27 2.27 0 0 0-2.27 2.27v5.312A2.28 2.28 0 0 0 12 14.254" style="stroke:none;fill-rule:nonzero;fill:#1e88e5;fill-opacity:1"/><path d="M11.246 17.223v2.386h1.52v-2.37c-.243.034-.496.034-.754.034-.27.016-.512 0-.766-.05" style="stroke:none;fill-rule:nonzero;fill:#4caf50;fill-opacity:1"/><path d="M9.309 14.691c-.672-.691-1.106-1.523-1.106-2.656h-1.52c0 1.52.594 2.766 1.555 3.727l.016-.016-.016-.016Zm0 0" style="stroke:none;fill-rule:nonzero;fill:#fbc02d;fill-opacity:1"/><path d="M15.793 12.031c0 1.903-1.68 3.774-3.793 3.774-1.055 0-2-.43-2.687-1.117l-1.07 1.07.015.015a5.33 5.33 0 0 0 2.992 1.489c.254.031.512.066.766.066.257 0 .511 0 .754-.035a5.29 5.29 0 0 0 4.543-5.23h-1.52Zm0 0" style="stroke:none;fill-rule:nonzero;fill:#e53935;fill-opacity:1"/></svg>